<svg xmlns="http://www.w3.org/2000/svg" width="150" height="150"><defs><clipPath id="a"><path transform="translate(1465.5 1671)" fill="#fff" stroke="#707070" d="M0 0h150v150H0z"/></clipPath></defs><g transform="translate(-1465.5 -1671)" clip-path="url(#a)"><path d="M1588.346 1785.71a13.165 13.165 0 01-13.1 13.235 12.591 12.591 0 01-1.621-.092 13.5 13.5 0 01-11.518-13.684v-78.361a13.507 13.507 0 0111.544-13.683 13.149 13.149 0 0114.694 13.143z" fill="#f9ab00"/><path d="M1505.775 1772.726a13.121 13.121 0 11-13.121 13.119 13.121 13.121 0 0113.121-13.119zm34.522-39.767a13.5 13.5 0 00-12.76 13.8V1782c0 9.565 4.21 15.37 10.376 16.607a13.141 13.141 0 0015.492-10.271 12.844 12.844 0 00.261-2.645v-39.545a13.165 13.165 0 00-13.142-13.191c-.07 0-.153 0-.227.004z" fill="#e37400"/></g></svg>