<svg xmlns="http://www.w3.org/2000/svg" width="150" height="150"><defs><clipPath id="a"><path transform="translate(469.5 1331)" fill="#fff" stroke="#707070" d="M0 0h150v150H0z"/></clipPath></defs><g transform="translate(-469.5 -1331)" clip-path="url(#a)"><path d="M593.052 1364.445h-97.1l9.1 98.706 39.44 11.186 39.443-11.186z" fill="#e6a329"/><path d="M544.495 1372.487v93.488l31.955-9.054 7.771-84.434z" fill="#f1bf22"/><path d="M569.917 1384.596h-49.134l-3.418 36.958.071-.23h41.738l-1.361 15.636-13.318 3.832-13.515-3.893-.809-9.464h-12.269l1.749 18.911 24.843 7.053 24.854-7.053 3.422-37.116h-44.3l.569-12.367h30.736l.459 7.085h12.378z" fill="#fff"/><path d="M544.505 1384.596h-23.722l-3.418 36.958.071-.23h27.069v-12.055h-14.307l.567-12.366h13.74zm-14.307 42.84h-12.3l1.749 18.9 24.843 7.042v-12.574l-13.515-3.9z" fill="#ebebeb"/><path d="M535.053 1349.886h-8.644v6.205h14.827v-18.43h-6.183zm27.53-12.125h-15.065v6.45c2.012 2.012 3.062 2.98 6.025 5.894h-6.025v5.883h15.065v-5.873l-6.023-5.893h6.023z" fill="#231f20"/></g></svg>