<svg xmlns="http://www.w3.org/2000/svg" width="150" height="150"><defs><clipPath id="a"><path transform="translate(303.5 1671)" fill="#fff" stroke="#707070" d="M0 0h150v150H0z"/></clipPath></defs><g transform="translate(-303.5 -1671)" clip-path="url(#a)"><path d="M324.282 1786.236a13.982 13.982 0 0013.982 13.982h80.472a13.982 13.982 0 0013.982-13.982v-80.472a13.982 13.982 0 00-13.982-13.982h-80.472a13.982 13.982 0 00-13.982 13.982v80.472z" fill="#563d7c"/><path d="M369.248 1739.747v-15.356h13.517a21.025 21.025 0 013.724.322 9.3 9.3 0 013.173 1.149 6.13 6.13 0 012.207 2.3 7.634 7.634 0 01.828 3.77q0 4.138-2.483 5.977a10.377 10.377 0 01-6.345 1.839h-14.621zm-14.437-26.574v65.655h31.816a33.567 33.567 0 008.6-1.1 23 23 0 007.448-3.4 16.759 16.759 0 005.2-5.931 18.066 18.066 0 001.931-8.6 18.193 18.193 0 00-2.988-10.528 15.781 15.781 0 00-9.058-6.115 16.364 16.364 0 006.667-5.425 14.382 14.382 0 002.253-8.276 17.611 17.611 0 00-1.517-7.724 12.618 12.618 0 00-4.283-5.016 18.455 18.455 0 00-6.621-2.713 40.873 40.873 0 00-8.552-.828h-30.9zm14.437 54.436v-18.026h15.724a12.164 12.164 0 017.541 2.161q2.85 2.161 2.851 7.218a9.023 9.023 0 01-.874 4.23 6.939 6.939 0 01-2.345 2.621 9.93 9.93 0 01-3.4 1.38 19.3 19.3 0 01-4.046.413z" fill="#fff"/></g></svg>