<svg xmlns="http://www.w3.org/2000/svg" width="150" height="150"><defs><clipPath id="a"><path transform="translate(635.5 1671)" fill="#fff" stroke="#707070" d="M0 0h150v150H0z"/></clipPath></defs><g transform="translate(-635.5 -1671)" clip-path="url(#a)"><path d="M691.72 1802.34a18.787 18.787 0 0018.78-18.78v-18.78h-18.78a18.78 18.78 0 000 37.56z" fill="#0acf83"/><path d="M672.94 1746a18.787 18.787 0 0118.78-18.78h18.78v37.56h-18.78a18.787 18.787 0 01-18.78-18.78z" fill="#a259ff"/><path d="M672.94 1708.44a18.787 18.787 0 0118.78-18.78h18.78v37.56h-18.78a18.787 18.787 0 01-18.78-18.78z" fill="#f24e1e"/><path d="M710.5 1689.66h18.78a18.78 18.78 0 010 37.56H710.5z" fill="#ff7262"/><path d="M748.06 1746a18.78 18.78 0 11-18.78-18.78 18.787 18.787 0 0118.78 18.78z" fill="#1abcfe"/></g></svg>