<svg xmlns="http://www.w3.org/2000/svg" width="150" height="150"><defs><clipPath id="a"><path transform="translate(137.5 1331)" fill="#fff" stroke="#707070" d="M0 0h150v150H0z"/></clipPath></defs><g transform="translate(-137.5 -1331)" clip-path="url(#a)"><path d="M257.869 1367.132l-8.266 92.606-37.158 10.301-37.057-10.286-8.258-92.621z" fill="#e44d26"/><path d="M212.499 1462.164l30.026-8.324 7.064-79.136h-37.09z" fill="#f16529"/><path d="M196.43 1397.423h16.07v-11.359h-28.484l.272 3.047 2.791 31.301h25.42v-11.356h-15.031zm2.56 28.672h-11.4l1.591 17.836 23.269 6.459.052-.014v-11.819l-.05.013-12.651-3.416-.809-9.06z" fill="#ebebeb"/><path d="M175.573 1341.961h5.773v5.7h5.281v-5.7h5.773v17.271h-5.774v-5.783h-5.28v5.783h-5.773v-17.271zm24.417 5.728h-5.081v-5.728h15.94v5.728h-5.085v11.543h-5.773v-11.543zm13.388-5.728h6.022l3.7 6.069 3.7-6.069h6.022v17.271h-5.75v-8.56l-3.972 6.141h-.1l-3.974-6.141v8.561h-5.648zm22.316 0h5.775v11.563h8.118v5.709h-13.894v-17.272z"/><path d="M212.46 1420.412h13.988l-1.319 14.732-12.669 3.42v11.818l23.288-6.454.171-1.919 2.667-29.903.277-3.05h-26.4v11.356zm0-23.019v.028h27.439l.228-2.553.518-5.759.271-3.047H212.46v11.334z" fill="#fff"/></g></svg>