<svg xmlns="http://www.w3.org/2000/svg" xmlns:xlink="http://www.w3.org/1999/xlink" width="150" height="150"><defs><linearGradient id="b" x1=".682" y1=".175" x2=".278" y2=".898" gradientUnits="objectBoundingBox"><stop offset="0" stop-color="#41873f"/><stop offset=".329" stop-color="#418b3d"/><stop offset=".635" stop-color="#419637"/><stop offset=".932" stop-color="#3fa92d"/><stop offset="1" stop-color="#3fae2a"/></linearGradient><linearGradient id="d" x1=".433" y1=".552" x2="1.592" y2="-.183" gradientUnits="objectBoundingBox"><stop offset=".138" stop-color="#41873f"/><stop offset=".403" stop-color="#54a044"/><stop offset=".714" stop-color="#66b848"/><stop offset=".908" stop-color="#6cc04a"/></linearGradient><linearGradient id="a" x1="-44.138" y1=".134" x2="53.279" y2=".134" gradientUnits="objectBoundingBox"><stop offset=".092" stop-color="#6cc04a"/><stop offset=".286" stop-color="#66b848"/><stop offset=".597" stop-color="#54a044"/><stop offset=".862" stop-color="#41873f"/></linearGradient><linearGradient id="e" x1="-.044" y1=".5" x2="1.015" y2=".5" xlink:href="#a"/><linearGradient id="f" x1="-97.138" y1=".362" x2=".279" y2=".362" xlink:href="#a"/><linearGradient id="g" x1="-1.039" y1=".503" x2="1.008" y2=".503" xlink:href="#a"/><linearGradient id="h" x1="1.306" y1="-2.111" x2=".044" y2="2.016" xlink:href="#b"/><clipPath id="c"><path fill="#fff" stroke="#707070" transform="translate(-8292.5 -2353)" d="M0 0h150v150H0z"/></clipPath></defs><g transform="translate(8292.5 2353)" clip-path="url(#c)"><g data-name="node"><path data-name="Trazado 4771" d="M-8218.313-2232.075a2.974 2.974 0 01-1.424-.373l-4.51-2.678c-.678-.373-.339-.509-.136-.576a8.226 8.226 0 002.034-.915.312.312 0 01.339.034l3.458 2.068a.431.431 0 00.407 0l13.529-7.832a.39.39 0 00.2-.373v-15.632a.39.39 0 00-.2-.373l-13.528-7.801a.429.429 0 00-.407 0l-13.528 7.8a.426.426 0 00-.2.373v15.627a.426.426 0 00.2.373l3.7 2.136c2 1.017 3.255-.17 3.255-1.356v-15.423a.412.412 0 01.407-.407h1.729a.412.412 0 01.407.407v15.427c0 2.678-1.458 4.238-4 4.238a5.816 5.816 0 01-3.119-.848l-3.567-2.033a2.861 2.861 0 01-1.424-2.475v-15.631a2.861 2.861 0 011.424-2.475l13.53-7.833a3.027 3.027 0 012.848 0l13.528 7.832a2.862 2.862 0 011.424 2.475v15.632a2.862 2.862 0 01-1.424 2.475l-13.528 7.832a3.468 3.468 0 01-1.424.305zm4.17-10.751c-5.933 0-7.154-2.712-7.154-5.018a.412.412 0 01.407-.407h1.763a.348.348 0 01.373.339c.271 1.8 1.051 2.678 4.645 2.678 2.848 0 4.069-.644 4.069-2.17 0-.882-.339-1.525-4.781-1.966-3.7-.373-6-1.187-6-4.136 0-2.746 2.306-4.374 6.171-4.374 4.34 0 6.476 1.492 6.747 4.747a.547.547 0 01-.1.305.419.419 0 01-.271.136h-1.766a.4.4 0 01-.373-.305c-.407-1.865-1.458-2.475-4.238-2.475-3.119 0-3.493 1.085-3.493 1.9 0 .983.441 1.288 4.645 1.831 4.17.543 6.137 1.322 6.137 4.238-.033 2.985-2.474 4.677-6.781 4.677z" fill="#539e43"/><path data-name="Trazado 4772" d="M-8260.289-2293.207a1.726 1.726 0 00-.882-1.492l-14.375-8.273a2.088 2.088 0 00-.78-.238h-.136a1.611 1.611 0 00-.78.238l-14.376 8.273a1.725 1.725 0 00-.882 1.492l.033 22.242a.843.843 0 00.441.746.77.77 0 00.848 0l8.544-4.882a1.725 1.725 0 00.882-1.492v-10.409a1.725 1.725 0 01.882-1.492l3.628-2.1a1.643 1.643 0 01.882-.238 1.458 1.458 0 01.848.238l3.628 2.1a1.724 1.724 0 01.882 1.492v10.409a1.725 1.725 0 00.882 1.492l8.544 4.882a.827.827 0 00.882 0 .843.843 0 00.441-.746l-.034-22.242zm69.101-30.619a.932.932 0 00-.848 0 .884.884 0 00-.441.746v22.041a.61.61 0 01-.915.542l-3.594-2.068a1.748 1.748 0 00-1.729 0l-14.377 8.307a1.725 1.725 0 00-.882 1.492v16.58a1.726 1.726 0 00.882 1.492l14.376 8.307a1.748 1.748 0 001.729 0l14.376-8.307a1.725 1.725 0 00.882-1.492v-41.332a1.739 1.739 0 00-.882-1.526l-8.577-4.782zm-1.322 42.179a.389.389 0 01-.2.373l-4.92 2.848a.5.5 0 01-.441 0l-4.916-2.846a.425.425 0 01-.2-.373v-5.7a.389.389 0 01.2-.373l4.92-2.845a.5.5 0 01.441 0l4.916 2.848a.425.425 0 01.2.373v5.7zm49.163-5.832a1.693 1.693 0 00.848-1.492v-4.033a1.766 1.766 0 00-.848-1.492l-14.274-8.273a1.748 1.748 0 00-1.729 0l-14.377 8.307a1.725 1.725 0 00-.882 1.492v16.58a1.725 1.725 0 00.882 1.492l14.274 8.137a1.684 1.684 0 001.7 0l8.646-4.814a.852.852 0 000-1.492l-14.444-8.307a.883.883 0 01-.441-.746v-5.187a.843.843 0 01.441-.746l4.51-2.577a.828.828 0 01.882 0l4.509 2.577a.883.883 0 01.441.746v4.069a.842.842 0 00.441.746.827.827 0 00.882 0z" fill="#333"/><path data-name="Trazado 4773" d="M-8158.706-2288.257a.308.308 0 01.339 0l2.746 1.594a.355.355 0 01.17.305v3.187a.356.356 0 01-.17.305l-2.746 1.594a.308.308 0 01-.339 0l-2.746-1.594a.356.356 0 01-.17-.305v-3.187a.355.355 0 01.17-.305z" fill="#539e43"/><g data-name="Grupo 1441"><path data-name="Trazado 4774" d="M16.987.543a1.748 1.748 0 00-1.729 0L.983 8.781a1.693 1.693 0 00-.848 1.492v16.512a1.766 1.766 0 00.848 1.492l14.274 8.239a1.748 1.748 0 001.729 0l14.275-8.239a1.694 1.694 0 00.848-1.492V10.273a1.767 1.767 0 00-.848-1.492z" fill="url(#b)" transform="translate(-8253.236 -2303.243)"/><g data-name="Grupo 1439"><path data-name="Trazado 4775" d="M-8238.012-2302.7l-14.308 8.238a1.759 1.759 0 00-.916 1.493v16.512a1.633 1.633 0 00.441 1.085l16.071-27.532a1.937 1.937 0 00-1.288.2zm1.39 36.144a2.085 2.085 0 00.407-.17l14.308-8.239a1.725 1.725 0 00.882-1.492v-16.513a1.727 1.727 0 00-.511-1.186l-15.088 27.6z" fill="none"/><path data-name="Trazado 4776" d="M31.3 8.782L16.953.543a2.354 2.354 0 00-.441-.17L.441 27.9a1.784 1.784 0 00.475.407l14.342 8.239a1.652 1.652 0 001.322.169l15.088-27.6a1.779 1.779 0 00-.373-.339z" fill="url(#d)" transform="translate(-8253.236 -2303.243)"/></g><g data-name="Grupo 1440"><path data-name="Trazado 4777" d="M-8221.025-2276.457v-16.513a1.758 1.758 0 00-.911-1.491l-14.348-8.239a1.5 1.5 0 00-.542-.2l15.7 26.819a.684.684 0 00.1-.373zm-31.3-18a1.759 1.759 0 00-.911 1.488v16.512a1.833 1.833 0 00.915 1.492l14.342 8.239a1.6 1.6 0 001.119.2l-15.359-27.969-.1.034z" fill="none"/><path data-name="Trazado 4778" d="M14.783.237l-.2.1h.271z" transform="translate(-8253.236 -2305.955)" fill-rule="evenodd" fill="url(#a)"/><path data-name="Trazado 4779" d="M31.329 30.99a1.929 1.929 0 00.848-1.085L16.444 3.052a1.722 1.722 0 00-1.22.2L.983 11.46l15.359 28.007a2.364 2.364 0 00.644-.2l14.343-8.277z" transform="translate(-8253.236 -2305.955)" fill-rule="evenodd" fill="url(#e)"/><path data-name="Trazado 4780" d="M32.652 30.719l-.1-.17v.237l.1-.068z" transform="translate(-8253.236 -2305.955)" fill-rule="evenodd" fill="url(#f)"/><path data-name="Trazado 4781" d="M31.329 30.99l-14.308 8.239a2.046 2.046 0 01-.644.2l.271.509 15.868-9.188v-.2l-.407-.678a1.575 1.575 0 01-.78 1.119z" transform="translate(-8253.236 -2305.955)" fill-rule="evenodd" fill="url(#g)"/><path data-name="Trazado 4782" d="M31.329 30.99l-14.308 8.239a2.046 2.046 0 01-.644.2l.271.509 15.868-9.188v-.2l-.407-.678a1.575 1.575 0 01-.78 1.119z" transform="translate(-8253.236 -2305.955)" fill-rule="evenodd" fill="url(#h)"/></g></g></g></g></svg>