<svg xmlns="http://www.w3.org/2000/svg" width="150" height="150"><defs><clipPath id="a"><path transform="translate(469.5 1501)" fill="#fff" stroke="#707070" d="M0 0h150v150H0z"/></clipPath></defs><g transform="translate(-469.5 -1501)" clip-path="url(#a)"><path d="M559.4 1565.999c-3.289 0-5.738 1.615-5.738 5.5 0 2.928 1.614 4.961 5.561 4.961 3.345 0 5.618-1.971 5.618-5.083 0-3.526-2.033-5.38-5.44-5.38zm-6.579 27.442a5.3 5.3 0 00-1.554 3.167c0 2.39 3.047 3.109 7.234 3.109 3.467 0 8.19-.243 8.19-3.467 0-1.916-2.272-2.034-5.143-2.214l-8.726-.6zm17.7-27.262a9.482 9.482 0 012.212 6.038c0 6.635-5.2 10.521-12.732 10.521a19.007 19.007 0 01-4.723-.537l-1.978 3.168 5.858.358c10.342.659 16.442.959 16.442 8.904 0 6.876-6.036 10.76-16.439 10.76-10.82 0-14.945-2.75-14.945-7.472 0-2.69 1.2-4.122 3.288-6.1a3.983 3.983 0 01-2.63-3.943 5.361 5.361 0 011.726-3.645c1.075-1.134 2.271-2.271 3.706-3.586-2.929-1.435-5.142-4.543-5.142-8.968 0-6.873 4.544-11.594 13.689-11.594a20.484 20.484 0 015.5.6h11.658v5.079l-5.5.419zm16.018-10.863c-3.408 0-5.381-1.974-5.381-5.383s1.967-5.26 5.376-5.26c3.467 0 5.44 1.855 5.44 5.259s-1.974 5.384-5.44 5.384zm-7.718 35.925v-4.72l3.05-.417c.837-.12.956-.3.956-1.2v-17.573c0-.656-.179-1.077-.779-1.254l-3.227-1.137.657-4.841h12.376v24.807c0 .958.058 1.077.957 1.2l3.049.417v4.72zm40.679-2.317a23.906 23.906 0 01-9.746 2.39c-7.114 0-9.8-2.866-9.8-9.625v-15.658c0-.358 0-.6-.48-.6h-4.184v-5.323c5.262-.6 7.353-3.23 8.01-9.746h5.68v8.491c0 .417 0 .6.479.6h8.428v5.978h-8.907v14.285c0 3.527.838 4.9 4.065 4.9a14.227 14.227 0 004.842-.955l1.613 5.262" fill="#2f2707"/><path d="M530.924 1573.231l-27.334-27.327a4.031 4.031 0 00-5.7 0l-5.678 5.676 7.2 7.2a4.788 4.788 0 016.064 6.1l6.938 6.939a4.794 4.794 0 11-2.873 2.7l-6.471-6.462v17.029a4.847 4.847 0 011.269.907 4.8 4.8 0 11-5.214-1.047v-17.187a4.739 4.739 0 01-1.57-1.047 4.8 4.8 0 01-1.034-5.245l-7.1-7.1-18.739 18.742a4.033 4.033 0 000 5.7l27.334 27.336a4.032 4.032 0 005.7 0l27.208-27.205a4.035 4.035 0 000-5.7" fill="#de4c36"/></g></svg>