<svg xmlns="http://www.w3.org/2000/svg" width="150" height="150"><defs><clipPath id="a"><path transform="translate(137.5 1671)" fill="#fff" stroke="#707070" d="M0 0h150v150H0z"/></clipPath></defs><g transform="translate(-137.5 -1671)" clip-path="url(#a)"><g stroke-width=".055"><path d="M174.522 1710.016a5.118 5.118 0 012.266-2.245 7.2 7.2 0 011.246-.036h20.49a6.781 6.781 0 00-1.575 1.719 27.573 27.573 0 00-2.408 5.557 179.207 179.207 0 00-4.38 17.7c-.561 2.7-1.1 5.412-1.611 8.109-1.556 8.834-3.167 17.652-5.176 26.394a94.879 94.879 0 01-3.421 11.965 12.317 12.317 0 01-2.679 4.526c-.308.271-.615.615-1.05.561h-18.1c-1.231-.036-2.444.072-3.674-.055a7.183 7.183 0 002.009-2.3 43.945 43.945 0 003.023-8.182c1.267-4.489 2.281-9.032 3.24-13.575.6-2.987 1.3-5.955 1.738-8.96.489-3.349 1.231-6.661 1.828-9.992.941-4.905 1.937-9.811 3.041-14.68.887-3.8 1.792-7.584 3-11.295a28.632 28.632 0 012.193-5.211z" fill="#eb7077" stroke="#eb7077"/><path d="M198.524 1707.735c.525 0 1.05-.018 1.575 0a6.009 6.009 0 012.679 2.806 35.121 35.121 0 011.865 4.308 173.34 173.34 0 014.272 17.087q1.573 7.711 2.986 15.476c.073.272-.018.652.344.724-1.3 6.806-2.588 13.63-4.217 20.382a89.606 89.606 0 01-3.168 10.77c-.724 1.756-1.467 3.674-3.005 4.923-.977.217-1.683-.525-2.281-1.195a17.437 17.437 0 01-2.286-4.434 130.484 130.484 0 01-4.556-17.178c-.959-4.507-1.81-9.05-2.7-13.576-.4-2.3-.941-4.561-1.249-6.86-.054-.036-.181-.109-.235-.145.507-2.7 1.05-5.412 1.611-8.109a179.207 179.207 0 014.38-17.7 27.573 27.573 0 012.41-5.56 6.781 6.781 0 011.575-1.719z" fill="#f6a2ad" stroke="#f6a2ad"/><path d="M221.168 1710.866c.652-1.249 1.448-2.642 2.86-3.112 7.186-.037 14.372-.019 21.56-.019a9.642 9.642 0 00-1.828 2.19 40.243 40.243 0 00-3.041 8c-2.136 7.53-3.638 15.223-5.068 22.916-1.324 7.585-2.736 15.169-4.346 22.713-.832 3.8-1.7 7.584-2.805 11.331a36.967 36.967 0 01-2.612 6.81 5.782 5.782 0 01-2.281 2.552c-6.86.055-13.739 0-20.6.018a8.249 8.249 0 01-1.159-.055c1.539-1.249 2.281-3.168 3.005-4.923a89.606 89.606 0 003.168-10.77c1.629-6.752 2.914-13.576 4.217-20.382 1.574-8.779 3.222-17.558 5.322-26.228a60.085 60.085 0 013.608-11.041z" fill="#eb7077" stroke="#eb7077"/><path d="M245.588 1707.735c.579 0 1.176-.018 1.756 0a6.5 6.5 0 012.209 2.172 26.628 26.628 0 012.226 5.032 145.207 145.207 0 013.656 14.1c1.376 6.39 2.57 12.815 3.747 19.241.29 1.539.579 3.1.76 4.652l.271.272a11.39 11.39 0 00-1.267 3.023 85.652 85.652 0 00-2.516 11.259 60.622 60.622 0 01-2.081 8.779 19.331 19.331 0 01-2.9 5.991 6.454 6.454 0 01-2.516 1.937c-1.5.163-2.39-1.285-3.114-2.353a40.1 40.1 0 01-3.186-8.417c-2.86-10.589-4.724-21.431-6.733-32.2a.477.477 0 00-.254-.38c1.43-7.693 2.933-15.386 5.068-22.916a40.243 40.243 0 013.041-8 9.642 9.642 0 011.833-2.192zm-108.082 41.179c.471-.036.941-.109 1.43-.109h19.73a8.381 8.381 0 012.5.4 7.117 7.117 0 012.95 2.263c.091-.054.253-.2.344-.272-.434 3-1.14 5.973-1.738 8.96-.959 4.543-1.973 9.087-3.24 13.575a43.945 43.945 0 01-3.023 8.182 7.183 7.183 0 01-2.009 2.3c-.308.055-.543-.163-.8-.326a6.745 6.745 0 01-1.862-2.333c-2.48-5.651-2.752-11.9-4.29-17.8a41.483 41.483 0 00-3.15-8.6 15.943 15.943 0 00-3.33-4.429 9.038 9.038 0 00-3.512-1.811z" fill="#f6a2ad" stroke="#f6a2ad"/><path d="M261.805 1750.797a5.9 5.9 0 014.561-2.027h14.843c2.063.036 4.145-.072 6.209.054a20.135 20.135 0 01-2.009.923 12 12 0 00-5.43 4.905c-1.973 3.439-2.661 7.385-3.24 11.259-.579 3.8-.561 7.729-1.792 11.422a13.863 13.863 0 01-4.29 6.9c-6.806.073-13.612.018-20.4.036a6.38 6.38 0 01-1.321-.073 6.454 6.454 0 002.516-1.937 19.331 19.331 0 002.9-5.991 60.622 60.622 0 002.081-8.779 85.652 85.652 0 012.516-11.259 11.39 11.39 0 011.267-3.023 15.412 15.412 0 011.589-2.41z" fill="#eb7077" stroke="#eb7077"/></g></g></svg>