<svg xmlns="http://www.w3.org/2000/svg" width="150" height="150"><defs><clipPath id="a"><path transform="translate(635.5 1331)" fill="#fff" stroke="#707070" d="M0 0h150v150H0z"/></clipPath></defs><g transform="translate(-635.5 -1331)" clip-path="url(#a)"><g transform="translate(635.5 1366.959)"><ellipse cx="75" cy="39.041" rx="75" ry="39.041" fill="#8993be"/><path d="M21.062 62.157l8.22-41.61h19.005c8.219.514 12.329 4.623 12.329 11.815 0 12.329-9.76 19.521-18.493 19.007h-9.246l-2.055 10.788zm13.87-18.493L37.5 28.253h6.678c3.6 0 6.164 1.541 6.164 4.623-.513 8.733-4.623 10.274-9.246 10.788h-6.164zm23.774 7.706l8.219-41.609h9.761l-2.055 10.787h9.246c8.22.514 11.3 4.623 10.274 9.761l-3.6 21.062H80.282l3.6-19.007c.513-2.569.513-4.11-3.082-4.11h-7.71L68.467 51.37zM89.9 62.157l8.219-41.61h19.007c8.22.514 12.329 4.623 12.329 11.815 0 12.329-9.761 19.521-18.493 19.007h-9.247l-2.058 10.788zm13.869-18.493l2.569-15.411h6.679c3.6 0 6.164 1.541 6.164 4.623-.513 8.733-4.623 10.274-9.246 10.788h-6.165z" fill="#232531" fill-rule="evenodd"/></g></g></svg>