<svg xmlns="http://www.w3.org/2000/svg" width="150" height="150"><defs><clipPath id="a"><path transform="translate(1133.5 1501)" fill="#fff" stroke="#707070" d="M0 0h150v150H0z"/></clipPath></defs><g transform="translate(-1133.5 -1501)" clip-path="url(#a)"><path d="M1145.55 1575.796c0 9.508 9.285 18.384 23.922 23.387-2.923 14.715-.524 26.575 7.49 31.2 8.236 4.75 20.507 1.462 32.154-8.719 11.353 9.77 22.827 13.615 30.833 8.98 8.229-4.764 10.731-17.428 7.728-32.6 15.246-5.04 23.774-12.609 23.774-22.242 0-9.287-9.3-17.322-23.741-22.293 3.234-15.8.494-27.374-7.851-32.186-8.045-4.64-19.653-.6-31.172 9.429-11.988-10.647-23.482-13.895-31.817-9.07-8.038 4.653-10.332 16.729-7.4 31.716-14.142 4.932-23.92 13.148-23.92 22.398z" fill="#fff"/><path d="M1244.65 1558.439q-1.785-.612-3.6-1.134.3-1.222.556-2.455c2.725-13.226.943-23.881-5.14-27.388-5.833-3.364-15.372.144-25.006 8.527q-1.424 1.242-2.784 2.555-.91-.873-1.853-1.711c-10.096-8.965-20.217-12.743-26.29-9.225-5.827 3.373-7.553 13.39-5.1 25.924q.366 1.862.826 3.7c-1.432.407-2.815.84-4.138 1.3-11.837 4.127-19.4 10.6-19.4 17.3 0 6.93 8.115 13.88 20.445 18.094q1.5.51 3.023.945-.495 1.983-.878 3.992c-2.339 12.316-.512 22.1 5.3 25.448 6 3.461 16.078-.1 25.888-8.672q1.163-1.017 2.333-2.151 1.472 1.421 3.022 2.758c9.5 8.177 18.888 11.479 24.695 8.118 6-3.472 7.946-13.977 5.415-26.759q-.289-1.464-.67-2.989 1.061-.313 2.079-.649c12.817-4.238 21.16-11.104 21.16-18.128 0-6.733-7.8-13.245-19.879-17.4z" fill="#53c1de"/><path d="M1241.869 1589.442c-.611.2-1.239.4-1.878.587a112.108 112.108 0 00-5.662-14.165 112.057 112.057 0 005.442-13.957c1.144.332 2.254.68 3.324 1.049 10.347 3.561 16.658 8.828 16.658 12.885 0 4.322-6.816 9.934-17.883 13.6zm-4.592 9.1a40.446 40.446 0 01.541 14.757c-.666 3.59-2.005 5.983-3.661 6.941-3.524 2.04-11.059-.612-19.186-7.6q-1.4-1.2-2.812-2.563a112.246 112.246 0 009.372-11.9 111.5 111.5 0 0015.141-2.34q.341 1.381.605 2.7zm-46.44 21.345c-3.443 1.216-6.184 1.25-7.842.295-3.527-2.034-4.993-9.887-2.993-20.419q.357-1.867.816-3.712a112.316 112.316 0 0015.068 2.176 116.231 116.231 0 009.6 11.858q-1.041 1.007-2.13 1.962a40.454 40.454 0 01-12.518 7.84zm-16.128-30.471a40.464 40.464 0 01-13.041-6.928c-2.773-2.375-4.173-4.733-4.173-6.647 0-4.071 6.07-9.264 16.194-12.794q1.906-.662 3.848-1.211a114.553 114.553 0 005.45 14.121 116.293 116.293 0 00-5.517 14.322q-1.39-.4-2.76-.864zm5.407-36.8c-2.1-10.739-.706-18.84 2.806-20.873 3.741-2.165 12.012.922 20.73 8.663a61.862 61.862 0 011.677 1.549 114.461 114.461 0 00-9.525 11.787 116.71 116.71 0 00-14.92 2.319q-.428-1.713-.768-3.445zm48.229 11.911q-1.64-2.832-3.4-5.592a105.22 105.22 0 0110.2 1.782 101.888 101.888 0 01-3.579 9.628q-1.55-2.941-3.216-5.818zm-19.668-19.16a102.151 102.151 0 016.58 7.943q-6.6-.312-13.215 0c2.172-2.865 4.4-5.526 6.635-7.94zm-19.794 19.19q-1.645 2.854-3.156 5.782a105.586 105.586 0 01-3.553-9.675c3.19-.714 6.592-1.3 10.137-1.74q-1.78 2.776-3.428 5.633zm3.53 28.543a101.7 101.7 0 01-10.3-1.657c.987-3.188 2.2-6.5 3.624-9.871q1.517 2.93 3.17 5.786 1.686 2.912 3.51 5.742zm16.4 13.553a107.245 107.245 0 01-6.727-8.051q3.207.125 6.538.125 3.419 0 6.749-.15a101.574 101.574 0 01-6.564 8.076zm22.8-25.252a101.439 101.439 0 013.755 9.836 101.37 101.37 0 01-10.43 1.778q1.773-2.81 3.433-5.69 1.687-2.926 3.243-5.924zm-7.38 3.538q-2.541 4.413-5.364 8.655c-3.317.237-6.746.359-10.239.359s-6.864-.108-10.123-.32q-2.9-4.229-5.464-8.668-2.555-4.412-4.77-9.009 2.208-4.595 4.756-9.014 2.546-4.417 5.421-8.631a135.527 135.527 0 0120.381.003q2.845 4.2 5.387 8.6t4.82 8.971q-2.24 4.609-4.8 9.05zm9.854-53.339c3.744 2.159 5.2 10.867 2.848 22.286q-.231 1.116-.5 2.223a114.424 114.424 0 00-14.95-2.362 112.206 112.206 0 00-9.451-11.8q1.256-1.211 2.571-2.358c8.255-7.184 15.97-10.02 19.485-7.993z" fill="#fff"/><path d="M1208.624 1565.857a9.984 9.984 0 11-9.982 9.984 9.984 9.984 0 019.984-9.984" fill="#53c1de"/></g></svg>