<svg xmlns="http://www.w3.org/2000/svg" width="150" height="150"><defs><clipPath id="a"><path transform="translate(967.5 1501)" fill="#fff" stroke="#707070" d="M0 0h150v150H0z"/></clipPath></defs><g transform="translate(-967.5 -1501)" clip-path="url(#a)"><path d="M1042.5 1511.261l57.219 32.37v64.739l-57.219 32.37-57.219-32.37v-64.739z" fill="#fff"/><path d="M1089.501 1606.136l-45.112 25.518v-19.875l28.107-15.458zm3.086-2.795v-53.366l-16.509 9.527v34.3l16.509 9.538zm-97.271 2.795l45.112 25.518v-19.875l-28.107-15.458-17 9.819zm-3.086-2.795v-53.366l16.509 9.527v34.3l-16.509 9.54zm1.932-56.82l46.267-26.175v19.217l-29.64 16.3-.227.129zm96.494 0l-46.267-26.175v19.217l29.64 16.3.227.129z" fill="#8ed6fb"/><path d="M1040.424 1607.259l-27.725-15.246v-30.212l27.725 16.012v29.446m3.96 0l27.73-15.246v-30.212l-27.725 16.012v29.446m-29.813-48.954l27.838-15.31 27.838 15.31-27.838 16.077-27.838-16.077" fill="#1c78c0"/></g></svg>